<?xml version="1.0" encoding="UTF-8" standalone="no"?>
<!-- Created with Inkscape (http://www.inkscape.org/) -->

<svg
   width="370mm"
   height="120mm"
   viewBox="0 0 370 120"
   version="1.1"
   id="svg1"
   inkscape:version="1.4.2 (f4327f4, 2025-05-13)"
   sodipodi:docname="silkscreen.svg"
   xml:space="preserve"
   inkscape:export-filename="silkscreen.svg"
   inkscape:export-xdpi="96"
   inkscape:export-ydpi="96"
   xmlns:inkscape="http://www.inkscape.org/namespaces/inkscape"
   xmlns:sodipodi="http://sodipodi.sourceforge.net/DTD/sodipodi-0.dtd"
   xmlns="http://www.w3.org/2000/svg"
   xmlns:svg="http://www.w3.org/2000/svg"><sodipodi:namedview
     id="namedview1"
     pagecolor="#505050"
     bordercolor="#ffffff"
     borderopacity="1"
     inkscape:showpageshadow="0"
     inkscape:pageopacity="0"
     inkscape:pagecheckerboard="1"
     inkscape:deskcolor="#505050"
     inkscape:document-units="mm"
     inkscape:zoom="0.93878173"
     inkscape:cx="686.52806"
     inkscape:cy="338.20428"
     inkscape:window-width="1920"
     inkscape:window-height="1009"
     inkscape:window-x="1072"
     inkscape:window-y="410"
     inkscape:window-maximized="1"
     inkscape:current-layer="layer1" /><defs
     id="defs1" /><g
     inkscape:label="Layer 1"
     inkscape:groupmode="layer"
     id="layer1"><path
       style="fill:#ffffff;fill-opacity:1;stroke:none;stroke-width:5.6219;stroke-linecap:round;stroke-linejoin:round;stroke-opacity:0;paint-order:stroke fill markers"
       d="m 162.81068,23.298334 c 0,0 21.27495,38.099824 22.67702,39.258078 1.34113,-1.280163 21.70169,-39.745758 21.70169,-39.745758 0,0 -11.09469,4.815818 -12.31389,5.913091 -0.85342,1.402081 -8.65628,19.446156 -8.65628,19.446156 -0.40492,-1.472495 -16.48639,-17.843323 -17.06872,-19.507113 6.79386,3.482125 11.80686,9.165334 16.3372,15.118017 0,0 -1.02943,-9.145017 -2.92607,-12.679632 -9.4831,-5.431238 -19.75095,-7.802839 -19.75095,-7.802839 z"
       id="path1"
       sodipodi:nodetypes="ccccccccc" /><path
       style="font-weight:bold;font-size:23.9185px;font-family:Verdana;-inkscape-font-specification:'Verdana Bold';text-align:center;text-anchor:middle;fill:#ffffff;stroke:none;stroke-width:2.82502;stroke-linecap:round;stroke-linejoin:round;stroke-opacity:0;paint-order:stroke fill markers"
       d="m 139.11781,66.739521 -6.34168,17.389965 h -5.02195 l -6.34167,-17.389965 h 4.70662 l 4.20442,12.216188 4.20443,-12.216188 z m 18.3126,17.389965 h -4.32121 l -7.3811,-11.935892 v 11.935892 h -4.111 V 66.739521 h 5.36064 l 6.34168,9.962149 v -9.962149 h 4.11099 z M 175.4744,70.103061 h -5.43072 v 14.026425 h -4.48472 V 70.103061 h -5.43071 v -3.36354 h 15.34615 z m 12.44976,1.962064 q 0,-0.654021 -0.26862,-1.12118 -0.26861,-0.467158 -0.92263,-0.735774 -0.45548,-0.186863 -1.06279,-0.2219 -0.6073,-0.04672 -1.41315,-0.04672 h -1.62338 v 4.683261 h 1.37812 q 1.07446,0 1.79856,-0.10511 0.72409,-0.105111 1.21461,-0.478837 0.46716,-0.362048 0.67738,-0.794169 0.2219,-0.443801 0.2219,-1.179575 z m 6.99569,12.064361 h -5.47743 l -4.74165,-6.37671 h -2.06718 v 6.37671 h -4.46136 V 66.739521 h 7.52125 q 1.54162,0 2.65112,0.175185 1.1095,0.175184 2.07886,0.759132 0.98103,0.583948 1.5533,1.518264 0.58395,0.922637 0.58395,2.324112 0,1.927028 -0.89928,3.141639 -0.8876,1.214612 -2.54602,2.020459 z m 9.93879,-6.049699 h -8.91104 v -3.363539 h 8.91104 z m 17.07464,0.128469 q 0,1.34308 -0.49052,2.522654 -0.49051,1.179575 -1.37811,1.985422 -0.946,0.864243 -2.19565,1.319722 -1.23797,0.45548 -2.90806,0.45548 -1.56498,0 -2.86134,-0.420443 -1.28469,-0.432121 -2.20732,-1.308043 -1.06279,-1.00439 -1.62338,-2.592728 -0.56059,-1.588338 -0.56059,-3.79566 0,-2.289076 0.52556,-4.064277 0.52555,-1.775201 1.7168,-3.141639 1.14454,-1.308043 2.96646,-2.032138 1.83359,-0.724095 4.35625,-0.724095 0.85256,0 1.86863,0.116789 1.01607,0.11679 1.31972,0.175184 v 3.421934 h -0.4438 q -0.31533,-0.151826 -1.07446,-0.338689 -0.74746,-0.198543 -1.70513,-0.198543 -2.24236,0 -3.49201,1.097822 -1.24965,1.097822 -1.50658,3.059887 0.89928,-0.537232 1.89199,-0.864243 1.00439,-0.33869 2.1606,-0.33869 1.01607,0 1.88032,0.233579 0.87592,0.233579 1.62337,0.747453 0.96935,0.67738 1.5533,1.821918 0.58395,1.144537 0.58395,2.861344 z m -5.31392,2.627765 q 0.36204,-0.397085 0.57226,-0.934317 0.2219,-0.548911 0.2219,-1.483227 0,-0.852564 -0.24525,-1.389796 -0.24526,-0.548911 -0.67738,-0.875922 -0.42045,-0.32701 -0.99271,-0.4438 -0.57227,-0.128468 -1.17958,-0.128468 -0.51387,0 -1.07446,0.116789 -0.56059,0.11679 -1.02775,0.291974 0,0.11679 -0.0117,0.385406 -0.0117,0.268616 -0.0117,0.677379 0,1.436512 0.2803,2.370828 0.29197,0.922637 0.77081,1.413154 0.32701,0.362047 0.77081,0.537232 0.4438,0.163505 0.95767,0.163505 0.38541,0 0.85257,-0.175184 0.46715,-0.175185 0.79417,-0.525553 z m 21.96811,-2.592728 q 0,1.354758 -0.51388,2.522654 -0.50219,1.156216 -1.47155,1.985422 -1.07446,0.887601 -2.47593,1.319722 -1.3898,0.420443 -3.17668,0.420443 -2.09053,-0.01168 -3.53872,-0.33869 -1.43652,-0.315332 -2.34747,-0.712416 v -3.842377 h 0.49051 q 1.06279,0.630664 2.28908,1.051106 1.22629,0.420443 2.4409,0.420443 0.73577,0 1.58834,-0.163506 0.86424,-0.175184 1.36643,-0.618984 0.39709,-0.362048 0.59563,-0.735774 0.21022,-0.373727 0.21022,-1.156217 0,-0.607306 -0.28029,-1.039427 -0.26862,-0.4438 -0.70074,-0.712416 -0.63066,-0.385406 -1.51826,-0.502195 -0.8876,-0.128469 -1.6117,-0.128469 -1.05111,0 -2.02046,0.186863 -0.95767,0.175185 -1.68177,0.350369 h -0.51387 v -9.810323 h 12.36801 v 3.328503 h -8.15191 v 2.837986 q 0.36205,-0.02336 0.91096,-0.03504 0.56059,-0.02336 0.98103,-0.02336 1.43651,0 2.55769,0.280295 1.13286,0.268616 1.95039,0.759132 1.06278,0.642343 1.65841,1.705128 0.59563,1.051106 0.59563,2.651123 z"
       id="text1"
       aria-label="VNTR-65" /><path
       d="m 145.13007,93.568371 q 0,0.546857 -0.24977,0.980661 -0.24976,0.431175 -0.63098,0.662537 -0.28658,0.173522 -0.62836,0.241879 -0.34179,0.06836 -0.80977,0.06836 h -1.38029 v -3.914754 h 1.41973 q 0.4785,0 0.82554,0.0815 0.34704,0.07887 0.58366,0.226104 0.40489,0.247137 0.63625,0.667796 0.23399,0.418029 0.23399,0.985918 z m -1.04376,-0.0079 q 0,-0.38648 -0.14197,-0.659908 -0.13934,-0.276057 -0.44432,-0.431175 -0.15512,-0.07624 -0.31812,-0.102536 -0.16038,-0.02892 -0.48639,-0.02892 h -0.25502 v 2.450336 h 0.25502 q 0.36019,0 0.52845,-0.03155 0.16827,-0.03418 0.32864,-0.120939 0.27606,-0.157747 0.40489,-0.420659 0.12882,-0.265541 0.12882,-0.65465 z m 4.66931,0.659908 h -2.16639 q 0.021,0.347044 0.26291,0.531082 0.24451,0.184038 0.71775,0.184038 0.29972,0 0.58104,-0.107794 0.28131,-0.107794 0.44432,-0.231362 h 0.10516 v 0.759814 q -0.32075,0.128827 -0.6047,0.186668 -0.28394,0.05784 -0.62835,0.05784 -0.88865,0 -1.36189,-0.399625 -0.47324,-0.399626 -0.47324,-1.138408 0,-0.730894 0.44695,-1.156811 0.44958,-0.428546 1.23043,-0.428546 0.72038,0 1.08319,0.365447 0.36282,0.362818 0.36282,1.046389 z m -0.94122,-0.554743 q -0.008,-0.29709 -0.14723,-0.44695 -0.13935,-0.14986 -0.43381,-0.14986 -0.27342,0 -0.44957,0.141973 -0.17616,0.141972 -0.19719,0.454837 z m 4.17503,0.92019 q 0,0.457467 -0.41014,0.738782 -0.41014,0.278686 -1.12263,0.278686 -0.39437,0 -0.71512,-0.07362 -0.32075,-0.07362 -0.51531,-0.163005 v -0.778218 h 0.0868 q 0.071,0.04995 0.16301,0.110422 0.0947,0.05784 0.26554,0.126198 0.14723,0.06047 0.3339,0.105165 0.18667,0.04207 0.39962,0.04207 0.27869,0 0.41278,-0.06047 0.13408,-0.0631 0.13408,-0.184038 0,-0.107794 -0.0789,-0.155118 -0.0789,-0.04995 -0.29972,-0.09465 -0.10517,-0.02366 -0.28658,-0.04995 -0.17878,-0.02892 -0.32601,-0.06836 -0.40225,-0.105164 -0.59681,-0.32601 -0.19455,-0.223475 -0.19455,-0.554743 0,-0.425917 0.40225,-0.707233 0.40489,-0.283944 1.10423,-0.283944 0.33127,0 0.63362,0.06836 0.30498,0.06573 0.47587,0.141972 v 0.746669 h -0.0815 q -0.21033,-0.144601 -0.48113,-0.233991 -0.26817,-0.09202 -0.54423,-0.09202 -0.22873,0 -0.38648,0.0631 -0.15512,0.0631 -0.15512,0.17878 0,0.105165 0.071,0.160376 0.071,0.05521 0.3339,0.110423 0.1446,0.02892 0.31023,0.05784 0.16827,0.02629 0.33653,0.06836 0.37334,0.09728 0.55211,0.307606 0.17878,0.207701 0.17878,0.520565 z m 1.57485,0.935966 h -0.94649 v -2.952498 h 0.94649 z m 0.0263,-3.373156 H 152.5915 V 91.4309 h 0.99907 z m 3.7386,3.034 q 0,0.4154 -0.11831,0.699345 -0.11831,0.283944 -0.33127,0.44432 -0.21296,0.163006 -0.51531,0.233992 -0.29971,0.07362 -0.67831,0.07362 -0.3076,0 -0.60732,-0.03681 -0.29709,-0.03681 -0.51531,-0.08939 v -0.738781 h 0.11568 q 0.17352,0.06836 0.42329,0.123568 0.24976,0.05784 0.44695,0.05784 0.26291,0 0.42592,-0.04995 0.16563,-0.04733 0.25239,-0.136715 0.0815,-0.08413 0.11831,-0.215587 0.0368,-0.131456 0.0368,-0.315494 v -0.05521 q -0.17089,0.139343 -0.37859,0.220845 -0.2077,0.0815 -0.46273,0.0815 -0.62047,0 -0.957,-0.373335 -0.33652,-0.373334 -0.33652,-1.135778 0,-0.365447 0.10253,-0.630988 0.10254,-0.26554 0.2892,-0.462724 0.17353,-0.184038 0.42592,-0.286574 0.25503,-0.102535 0.52057,-0.102535 0.23925,0 0.4338,0.05784 0.19718,0.05521 0.35756,0.155118 l 0.0342,-0.131456 h 0.91756 z m -0.94648,-0.591551 v -1.33822 q -0.0815,-0.03418 -0.19981,-0.05258 -0.11831,-0.02103 -0.21296,-0.02103 -0.37334,0 -0.56,0.215588 -0.18667,0.212958 -0.18667,0.596809 0,0.425917 0.15774,0.59418 0.16038,0.168264 0.47325,0.168264 0.14197,0 0.27868,-0.0447 0.13672,-0.04469 0.24977,-0.11831 z m 4.80602,0.930707 h -0.95174 v -1.464418 q 0,-0.17878 -0.0184,-0.354931 -0.0184,-0.178779 -0.0631,-0.262911 -0.0526,-0.09728 -0.15512,-0.141972 -0.0999,-0.0447 -0.28131,-0.0447 -0.12883,0 -0.26291,0.04207 -0.13146,0.04207 -0.28658,0.134085 v 2.092777 h -0.94648 v -2.952498 h 0.94648 v 0.326011 q 0.2524,-0.197184 0.48376,-0.302349 0.23399,-0.105164 0.51793,-0.105164 0.4785,0 0.74667,0.278686 0.2708,0.278686 0.2708,0.83343 z m 3.77804,-1.301413 h -2.16639 q 0.021,0.347044 0.26291,0.531082 0.24451,0.184038 0.71775,0.184038 0.29972,0 0.58104,-0.107794 0.28131,-0.107794 0.44432,-0.231362 h 0.10516 v 0.759814 q -0.32075,0.128827 -0.6047,0.186668 -0.28394,0.05784 -0.62835,0.05784 -0.88865,0 -1.36189,-0.399625 -0.47324,-0.399626 -0.47324,-1.138408 0,-0.730894 0.44695,-1.156811 0.44958,-0.428546 1.23043,-0.428546 0.72038,0 1.08319,0.365447 0.36282,0.362818 0.36282,1.046389 z m -0.94122,-0.554743 q -0.008,-0.29709 -0.14723,-0.44695 -0.13934,-0.14986 -0.43381,-0.14986 -0.27342,0 -0.44957,0.141973 -0.17616,0.141972 -0.19719,0.454837 z m 4.48001,1.856156 h -0.94648 v -0.307607 q -0.24451,0.199813 -0.45747,0.294461 -0.21295,0.09465 -0.49164,0.09465 -0.53897,0 -0.86235,-0.4154 -0.32338,-0.4154 -0.32338,-1.120003 0,-0.375964 0.10779,-0.665167 0.11042,-0.291832 0.29972,-0.499532 0.17878,-0.197184 0.43381,-0.304977 0.25502,-0.110423 0.51004,-0.110423 0.26554,0 0.43381,0.05784 0.17089,0.05521 0.34967,0.141973 V 91.4309 h 0.94648 z m -0.94648,-0.815026 v -1.448643 q -0.0999,-0.04207 -0.21033,-0.06047 -0.11042,-0.0184 -0.20244,-0.0184 -0.37334,0 -0.56,0.233992 -0.18667,0.231362 -0.18667,0.644133 0,0.433804 0.14986,0.630988 0.14986,0.194555 0.48113,0.194555 0.12883,0 0.27343,-0.04733 0.1446,-0.04995 0.25502,-0.128826 z m 7.08284,-0.383851 q 0,0.283944 -0.11568,0.507419 -0.11305,0.223475 -0.31287,0.370706 -0.23136,0.173521 -0.51004,0.247137 -0.27606,0.07362 -0.70198,0.07362 h -1.70892 v -3.914754 h 1.51963 q 0.47324,0 0.69145,0.03155 0.22085,0.03155 0.43644,0.139343 0.22347,0.113052 0.33126,0.304978 0.11043,0.189296 0.11043,0.433804 0,0.283945 -0.14986,0.502161 -0.14986,0.215588 -0.42329,0.336527 v 0.02103 q 0.38385,0.07624 0.60733,0.315494 0.2261,0.23925 0.2261,0.630988 z m -1.29353,-1.609019 q 0,-0.09728 -0.0499,-0.194555 -0.0473,-0.09728 -0.17089,-0.144601 -0.11042,-0.04207 -0.27606,-0.0447 -0.163,-0.0053 -0.46009,-0.0053 h -0.0947 v 0.828171 h 0.15775 q 0.23925,0 0.40751,-0.0079 0.16826,-0.0079 0.26554,-0.05258 0.13671,-0.06047 0.17878,-0.155117 0.0421,-0.09728 0.0421,-0.223475 z m 0.24714,1.593244 q 0,-0.186667 -0.0736,-0.286574 -0.071,-0.102535 -0.24451,-0.152488 -0.11831,-0.03418 -0.32601,-0.03681 -0.2077,-0.0026 -0.43381,-0.0026 h -0.22084 v 0.975402 h 0.0736 q 0.42592,0 0.60996,-0.0026 0.18404,-0.0026 0.33915,-0.06836 0.15775,-0.06573 0.21559,-0.173522 0.0605,-0.110423 0.0605,-0.252395 z m 3.0787,0.170893 0.67305,-1.908739 h 0.97278 l -1.64057,4.035694 h -1.02536 l 0.46798,-1.104229 -1.14892,-2.931465 h 0.99381 z m 6.86988,-2.11381 h -1.80094 v 0.728265 h 1.66948 v 0.757186 h -1.66948 v 1.672118 h -1.00433 v -3.914754 h 2.80527 z m 2.43193,2.387238 v -0.615213 q -0.19193,0.01577 -0.4154,0.04469 -0.22348,0.02629 -0.33916,0.0631 -0.14197,0.04469 -0.21821,0.131456 -0.0736,0.08413 -0.0736,0.223475 0,0.09202 0.0158,0.14986 0.0158,0.05784 0.0789,0.110423 0.0605,0.05258 0.1446,0.07887 0.0841,0.02366 0.26291,0.02366 0.14197,0 0.28658,-0.05784 0.14723,-0.05784 0.25765,-0.152489 z m 0,0.457466 q -0.0762,0.05784 -0.1893,0.139343 -0.11305,0.0815 -0.21296,0.128827 -0.13934,0.0631 -0.2892,0.09202 -0.14986,0.03155 -0.32864,0.03155 -0.42066,0 -0.7046,-0.260282 -0.28395,-0.260283 -0.28395,-0.665167 0,-0.323381 0.14461,-0.528452 0.1446,-0.205071 0.41014,-0.323381 0.26291,-0.11831 0.65202,-0.168264 0.38911,-0.04995 0.80714,-0.07361 v -0.01578 q 0,-0.244507 -0.19982,-0.336526 -0.19981,-0.09465 -0.58892,-0.09465 -0.23399,0 -0.49953,0.08413 -0.26554,0.0815 -0.38122,0.126198 h -0.0868 v -0.712491 q 0.14986,-0.03944 0.48638,-0.09202 0.33916,-0.05521 0.67832,-0.05521 0.80714,0 1.1647,0.249766 0.36018,0.247137 0.36018,0.778218 v 2.008645 h -0.93859 z m 4.77448,0.312865 h -0.95174 v -1.464418 q 0,-0.17878 -0.0184,-0.354931 -0.0184,-0.178779 -0.0631,-0.262911 -0.0526,-0.09728 -0.15511,-0.141972 -0.0999,-0.0447 -0.28132,-0.0447 -0.12883,0 -0.26291,0.04207 -0.13146,0.04207 -0.28657,0.134085 v 2.092777 h -0.94649 v -2.952498 h 0.94649 v 0.326011 q 0.25239,-0.197184 0.48375,-0.302349 0.23399,-0.105164 0.51794,-0.105164 0.4785,0 0.74667,0.278686 0.2708,0.278686 0.2708,0.83343 z m 1.81672,0 h -0.94649 v -2.952498 h 0.94649 z m 0.0263,-3.373156 h -0.99907 V 91.4309 h 0.99907 z m 3.77541,2.071743 h -2.16639 q 0.021,0.347044 0.26291,0.531082 0.24451,0.184038 0.71775,0.184038 0.29972,0 0.58103,-0.107794 0.28132,-0.107794 0.44432,-0.231362 h 0.10517 v 0.759814 q -0.32075,0.128827 -0.6047,0.186668 -0.28394,0.05784 -0.62836,0.05784 -0.88864,0 -1.36188,-0.399625 -0.47324,-0.399626 -0.47324,-1.138408 0,-0.730894 0.44695,-1.156811 0.44958,-0.428546 1.23042,-0.428546 0.72038,0 1.0832,0.365447 0.36282,0.362818 0.36282,1.046389 z m -0.94122,-0.554743 q -0.008,-0.29709 -0.14724,-0.44695 -0.13934,-0.14986 -0.4338,-0.14986 -0.27343,0 -0.44958,0.141973 -0.17615,0.141972 -0.19718,0.454837 z m 7.05128,-2.058598 -1.42761,3.914754 h -1.13052 l -1.42761,-3.914754 h 1.05954 l 0.94648,2.750055 0.94648,-2.750055 z m 3.41785,2.613341 h -2.16639 q 0.021,0.347044 0.26291,0.531082 0.24451,0.184038 0.71775,0.184038 0.29972,0 0.58104,-0.107794 0.28131,-0.107794 0.44432,-0.231362 h 0.10516 v 0.759814 q -0.32075,0.128827 -0.60469,0.186668 -0.28395,0.05784 -0.62836,0.05784 -0.88864,0 -1.36188,-0.399625 -0.47325,-0.399626 -0.47325,-1.138408 0,-0.730894 0.44695,-1.156811 0.44958,-0.428546 1.23043,-0.428546 0.72038,0 1.0832,0.365447 0.36281,0.362818 0.36281,1.046389 z m -0.94122,-0.554743 q -0.008,-0.29709 -0.14723,-0.44695 -0.13934,-0.14986 -0.4338,-0.14986 -0.27343,0 -0.44958,0.141973 -0.17615,0.141972 -0.19719,0.454837 z m 4.57466,1.856156 h -0.95174 v -1.464418 q 0,-0.17878 -0.0184,-0.354931 -0.0184,-0.178779 -0.0631,-0.262911 -0.0526,-0.09728 -0.15512,-0.141972 -0.0999,-0.0447 -0.28131,-0.0447 -0.12883,0 -0.26291,0.04207 -0.13146,0.04207 -0.28658,0.134085 v 2.092777 h -0.94648 v -2.952498 h 0.94648 v 0.326011 q 0.2524,-0.197184 0.48376,-0.302349 0.23399,-0.105164 0.51794,-0.105164 0.4785,0 0.74667,0.278686 0.27079,0.278686 0.27079,0.83343 z m 2.75794,-0.02629 q -0.15248,0.03944 -0.32338,0.06047 -0.17089,0.02366 -0.41803,0.02366 -0.55211,0 -0.82291,-0.223475 -0.26817,-0.223474 -0.26817,-0.765072 v -1.380286 h -0.38911 v -0.641505 h 0.38911 v -0.843946 h 0.94648 v 0.843946 h 0.88601 v 0.641505 H 211.4022 V 94.2572 q 0,0.155118 0.003,0.270799 0.003,0.115681 0.0421,0.2077 0.0368,0.09202 0.12882,0.147231 0.0947,0.05258 0.27343,0.05258 0.0736,0 0.19193,-0.03155 0.12094,-0.03155 0.16826,-0.05784 h 0.0789 z m 3.47307,-1.275122 h -2.1664 q 0.021,0.347044 0.26292,0.531082 0.2445,0.184038 0.71774,0.184038 0.29972,0 0.58104,-0.107794 0.28131,-0.107794 0.44432,-0.231362 h 0.10516 v 0.759814 q -0.32075,0.128827 -0.60469,0.186668 -0.28395,0.05784 -0.62836,0.05784 -0.88864,0 -1.36188,-0.399625 -0.47324,-0.399626 -0.47324,-1.138408 0,-0.730894 0.44695,-1.156811 0.44957,-0.428546 1.23042,-0.428546 0.72038,0 1.0832,0.365447 0.36282,0.362818 0.36282,1.046389 z m -0.94123,-0.554743 q -0.008,-0.29709 -0.14723,-0.44695 -0.13934,-0.14986 -0.4338,-0.14986 -0.27343,0 -0.44958,0.141973 -0.17615,0.141972 -0.19719,0.454837 z m 3.74912,-0.194555 h -0.0841 q -0.0605,-0.02103 -0.19455,-0.03155 -0.13409,-0.01052 -0.22348,-0.01052 -0.20244,0 -0.35756,0.02629 -0.15512,0.02629 -0.3339,0.08939 v 1.977096 h -0.94648 v -2.952498 h 0.94648 v 0.433805 q 0.31287,-0.26817 0.54423,-0.354931 0.23136,-0.08939 0.42592,-0.08939 0.0499,0 0.11305,0.0026 0.0631,0.0026 0.11042,0.0079 z"
       id="text2"
       style="font-weight:bold;font-size:5.38443px;font-family:Verdana;-inkscape-font-specification:'Verdana Bold';text-align:center;text-anchor:middle;fill:#ffffff;stroke:none;stroke-width:2.8618;stroke-linecap:round;stroke-linejoin:round;stroke-opacity:0;paint-order:stroke fill markers"
       aria-label="Designed By Fanie Venter" /></g></svg>
